# xmcd
#
# Track frame offsets:
#	150
#	19720
#	39053
#	70290
#	87480
#	117392
#	135162
#	157618
#	175053
#	192215
#	208895
#	220750
#	238340
#	261621
#
# Disc length: 3687 seconds
#
# Revision: 2
# Processed by: cddbd v1.5.2PL0 Copyright (c) Steve Scherf et al.
# Submitted via: EasyCDDAExtractor 11.1.0.1
#
DISCID=c00e650e
DTITLE=Marva Wright - Blues Queen Of New Orleans
DYEAR=2004
DGENRE=Blues
TTITLE0=Bluesiana Mama
TTITLE1=Members Only
TTITLE2=Ghetto Woman
TTITLE3=Feel Like Breakin Up Somebody's Home
TTITLE4=I will Survive
TTITLE5=Built For Comfort
TTITLE6=At Last
TTITLE7=Shake A Hand
TTITLE8=Driving Wheel
TTITLE9=I'll Take You There
TTITLE10=Heartbreakin' Woman
TTITLE11=Mr Big Stuff
TTITLE12=Wang Dang Doodle
TTITLE13=No Drawers
EXTD=
EXTT0=
EXTT1=
EXTT2=
EXTT3=
EXTT4=
EXTT5=
EXTT6=
EXTT7=
EXTT8=
EXTT9=
EXTT10=
EXTT11=
EXTT12=
EXTT13=
PLAYORDER=
